<svg id="Capa_1" enable-background="new 0 0 512 512" height="512" viewBox="0 0 512 512" width="512" xmlns="http://www.w3.org/2000/svg"><g><path d="m483.813 97.082c9.374-15.572 7.402-36.026-5.962-49.389-13.363-13.364-33.818-15.336-49.389-5.962-49.98-25.535-101.109-.881-137.361 35.372-36.252 36.252-60.906 87.381-35.372 137.361-9.374 15.572-7.402 36.026 5.962 49.389s33.818 15.336 49.389 5.962c49.98 25.535 101.109.881 137.361-35.372 36.252-36.252 60.907-87.381 35.372-137.361z" fill="#f6ee86"/><path d="m313.599 57.719c-7.975 5.848-15.514 12.399-22.499 19.384-36.252 36.252-60.906 87.381-35.372 137.361-9.374 15.572-7.402 36.026 5.962 49.389s33.818 15.336 49.389 5.962c39.383 20.121 79.477 9.076 112.447-14.248-137.236-5.622-137.94-140.431-109.927-197.848z" fill="#efd176"/><g fill="#efd176"><circle cx="391.387" cy="224.796" r="7.723"/><circle cx="428.677" cy="205.522" r="7.722"/><circle cx="312.499" cy="111.122" r="7.722"/></g><path d="m294.005 259.714c-11.02 4.33-23.755 4.157-23.755-22.541 0-13.124-5.235-25.048-13.727-33.795 6.156-8.137 9.811-18.265 9.811-29.231s-3.655-21.094-9.811-29.231c8.492-8.746 13.727-20.671 13.727-33.795 0-26.768-21.777-48.545-48.545-48.545h-53.113c-13.903 0-26.46 5.874-35.318 15.272-13.196-10.294-29.784-16.433-47.778-16.433h-36.951c-26.768.001-48.545 21.778-48.545 48.545v127.213c0 12.82 5.21 25.359 14.291 34.399 4.496 4.478 9.717 7.968 15.396 10.361-10.685 11.207-17.797 25.46-20.074 41.332-2.657 18.516 1.603 36.586 11.472 51.307-1.173.884-2.31 1.823-3.408 2.818-9.608 8.707-15.25 20.635-15.886 33.587-.637 12.951 3.808 25.375 12.515 34.983 19.75 21.792 49.769 34.802 80.301 34.802 15.65 0 30.41-3.842 43.17-10.648 3.841 3.08 8.216 5.62 13.057 7.463 5.545 2.115 11.363 3.187 17.29 3.187 20.001 0 38.225-12.552 45.358-31.238h9.729c7.134 18.693 25.338 31.238 45.356 31.238 5.865 0 11.627-1.051 17.141-3.129 2.546-.961 4.966-2.115 7.246-3.438 6.307 3.003 13.359 4.684 20.798 4.684 25.101 0 45.814-19.151 48.296-43.609 2.482 24.458 23.195 43.609 48.296 43.609h53.113c26.768 0 48.545-21.777 48.545-48.545 0-13.124-5.235-25.049-13.727-33.795 6.156-8.137 9.81-18.265 9.81-29.231s-3.655-21.095-9.81-29.231c8.492-8.746 13.727-20.671 13.727-33.795 0-26.768-21.777-48.545-48.545-48.545h-53.113c-8.11 0-15.761 1.999-22.488 5.53-6.831-3.674-14.636-5.76-22.921-5.76h-51.185c-7.027.001-13.709 1.507-19.745 4.205z" fill="#8de1ce"/><g><path d="m221.706 229.673h-45.613v-48.026h41.697c4.142 0 7.5-3.358 7.5-7.5s-3.358-7.5-7.5-7.5h-41.697v-48.026h45.613c4.142 0 7.5-3.358 7.5-7.5s-3.358-7.5-7.5-7.5h-53.113c-4.142 0-7.5 3.358-7.5 7.5v126.052c0 4.142 3.358 7.5 7.5 7.5h53.113c4.142 0 7.5-3.358 7.5-7.5s-3.358-7.5-7.5-7.5z" fill="#6a95d6"/><path d="m111.019 165.667c6.928-6.691 11.25-16.065 11.25-26.435 0-20.276-16.496-36.772-36.772-36.772h-36.952c-4.142 0-7.5 3.358-7.5 7.5v127.213c0 4.067 3.274 7.5 7.533 7.5.34-.001 34.118-.151 43.373-.151 23.017 0 41.742-18.725 41.742-41.742-.001-16.148-9.224-30.174-22.674-37.113zm-54.974-48.207h29.452c12.005 0 21.772 9.767 21.772 21.772s-9.767 21.772-21.772 21.772c-3.011 0 10.909-.017-29.452.034zm35.906 112.062c-6.552 0-25.305.075-35.906.119v-53.54c29.296-.123 14.288-.033 35.906-.063 14.746 0 26.742 11.997 26.742 26.742-.001 14.746-11.997 26.742-26.742 26.742z" fill="#6a95d6"/><g fill="#fff"><path d="m275.581 429.57-47.334-125.427c-.026-.069-.053-.138-.081-.206-1.608-3.909-5.376-6.433-9.602-6.433-.003 0-.007 0-.01 0-4.23.004-7.998 2.537-9.601 6.452-.023.057-.046.114-.067.171l-47.768 125.421c-1.474 3.871.468 8.204 4.339 9.678 3.854 1.469 8.199-.454 9.678-4.339l10.057-26.406h66.398l9.957 26.384c1.462 3.874 5.788 5.832 9.665 4.369 3.876-1.461 5.832-5.789 4.369-9.664zm-84.675-36.089 27.638-72.567 27.386 72.567z"/><path d="m364.933 311.555c4.142 0 7.5-3.358 7.5-7.5s-3.358-7.5-7.5-7.5h-51.183c-4.142 0-7.5 3.358-7.5 7.5v126.281c0 4.142 3.358 7.5 7.5 7.5s7.5-3.358 7.5-7.5v-56.836h39.617c4.142 0 7.5-3.358 7.5-7.5s-3.358-7.5-7.5-7.5h-39.617v-46.945z"/><path d="m463.455 422.836h-45.613v-48.026h41.697c4.142 0 7.5-3.358 7.5-7.5s-3.358-7.5-7.5-7.5h-41.697v-48.026h45.613c4.142 0 7.5-3.358 7.5-7.5s-3.358-7.5-7.5-7.5h-53.113c-4.142 0-7.5 3.358-7.5 7.5v126.052c0 4.142 3.358 7.5 7.5 7.5h53.113c4.142 0 7.5-3.358 7.5-7.5s-3.358-7.5-7.5-7.5z"/></g><g><path d="m94.607 439.718c-19.14 0-37.79-7.97-49.888-21.32-2.782-3.069-2.548-7.813.521-10.594 3.07-2.782 7.813-2.548 10.594.521 9.303 10.265 23.798 16.394 38.774 16.394 17.326 0 28.642-11.02 30.493-21.389 1.975-11.059-6.06-20.782-22.042-26.678-16.362-6.035-36.97-14.759-38.509-15.761-23.273-15.174-18.53-51.804 12.225-61.068 30.452-9.173 55.676 11.629 56.734 12.519 3.171 2.665 3.581 7.397.915 10.567-2.661 3.166-7.38 3.58-10.551.929-.341-.28-20.286-16.425-42.773-9.653-18.567 5.593-20.678 25.588-8.819 33.83 3.178 1.401 18.93 8.278 35.969 14.563 11.779 4.345 20.538 10.568 26.034 18.497 5.217 7.525 7.148 16.132 5.584 24.891-3.437 19.242-22.894 33.752-45.261 33.752z" fill="#fff"/></g></g><g><g fill="#eda1ab"><ellipse cx="320.8" cy="218.964" rx="30.241" ry="24.082" transform="matrix(.707 -.707 .707 .707 -60.871 290.975)"/><ellipse cx="436.705" cy="103.059" rx="30.241" ry="24.082" transform="matrix(.707 -.707 .707 .707 55.034 338.982)"/></g><g fill="#4e5660"><path d="m311.566 195.413-8.742-8.741c-2.929-2.929-2.929-7.677 0-10.607 2.929-2.929 7.678-2.93 10.607 0l8.742 8.741c2.929 2.929 2.929 7.677 0 10.606s-7.678 2.93-10.607.001z"/><path d="m402.547 104.432-8.741-8.741c-2.929-2.929-2.929-7.678 0-10.606 2.929-2.929 7.678-2.929 10.606 0l8.741 8.741c2.929 2.929 2.929 7.678 0 10.606-2.928 2.929-7.677 2.929-10.606 0z"/><path d="m349.592 163.835c-4.132-.284-7.252-3.864-6.968-7.997.284-4.132 3.853-7.259 7.997-6.968 4.329.303 8.577-1.287 11.639-4.351 3.063-3.062 4.648-7.305 4.351-11.641-.284-4.132 2.837-7.712 6.969-7.996 4.124-.29 7.712 2.836 7.996 6.969.594 8.662-2.58 17.146-8.709 23.274-6.121 6.122-14.599 9.304-23.275 8.71z"/></g></g></g></svg>